# xmcd CD database file
#
# Track frame offsets:
#	150
#	27705
#	47427
#	63892
#	88887
#	104427
#	121207
#	134327
#	148262
#
# Disc length: 2362 seconds
#
# Revision: 1
# Processed by: cddbd v1.5.2PL0 Copyright (c) Steve Scherf et al.
# Submitted via: CDex 1.51
#
DISCID=82093809
DTITLE=Patti Austin - End Of A Rainbow
DYEAR=1976
DGENRE=Jazz
TTITLE0=Say You Love Me
TTITLE1=In My Life
TTITLE2=You Don't Have To Say You're Sorry
TTITLE3=More Today Than Yesterday
TTITLE4=Give It Time
TTITLE5=There Is No Time
TTITLE6=What's At The End Of A Rainbow
TTITLE7=This Side Of Heaven
TTITLE8=Sweet Sadie The Savior
EXTD=YEAR: 1976
EXTT0=
EXTT1=
EXTT2=
EXTT3=
EXTT4=
EXTT5=
EXTT6=
EXTT7=
EXTT8=
PLAYORDER=
